<svg width="29" height="29" viewBox="0 0 29 29" fill="none" xmlns="http://www.w3.org/2000/svg">
<path d="M14.5 22.04C10.324 22.04 6.96002 18.676 6.96002 14.5C6.96002 12.644 7.65602 10.904 8.87402 9.512L9.74402 10.266C8.70002 11.426 8.12002 12.934 8.12002 14.5C8.12002 18.038 10.962 20.88 14.5 20.88C15.428 20.88 16.298 20.706 17.168 20.3L17.632 21.344C16.646 21.808 15.602 22.04 14.5 22.04Z" fill="#0219ED"/>
<path d="M20.126 19.546L19.256 18.792C20.3 17.632 20.88 16.124 20.88 14.558C20.88 11.02 18.038 8.178 14.5 8.178C13.572 8.178 12.702 8.352 11.832 8.758L11.368 7.714C12.354 7.25 13.398 7.018 14.5 7.018C18.676 7.018 22.04 10.382 22.04 14.558C22.04 16.356 21.344 18.154 20.126 19.546Z" fill="#0219ED"/>
<path d="M10.44 13.92H9.27999V10.44H5.79999V9.28H10.44V13.92Z" fill="#0219ED"/>
<path d="M23.2 19.72H18.56V15.08H19.72V18.56H23.2V19.72Z" fill="#0219ED"/>
</svg>
